<svg version="1.1" id="Layer_1" xmlns="http://www.w3.org/2000/svg" xmlns:xlink="http://www.w3.org/1999/xlink" x="0px" y="0px"
	 width="100%" viewBox="0 0 100 101" enable-background="new 0 0 100 101" xml:space="preserve">
<path fill="#030303" opacity="1.000000" stroke="none" 
	d="
M96.249466,102.000000 
	C64.229645,102.000000 32.733334,102.000000 1.118511,102.000000 
	C1.118511,68.416656 1.118511,34.832748 1.118511,1.124423 
	C34.246071,1.124423 67.492760,1.124423 100.869720,1.124423 
	C100.869720,34.575424 100.869720,68.151527 100.869720,102.000000 
	C99.594933,102.000000 98.183952,102.000000 96.249466,102.000000 
M68.360245,83.341698 
	C68.360245,72.428841 68.360245,61.515991 68.360245,50.446842 
	C62.303715,50.446842 56.970257,50.663864 51.665676,50.366199 
	C48.435925,50.184967 46.959076,51.264919 46.072033,54.344395 
	C44.183483,60.900715 41.932629,67.352669 39.450844,75.019501 
	C36.831940,67.005287 34.716087,60.204094 32.322369,53.502140 
	C31.884453,52.276070 30.353706,50.632236 29.262417,50.581581 
	C23.161280,50.298382 17.040174,50.445358 10.694725,50.445358 
	C10.694725,64.280869 10.694725,77.638031 10.694725,91.073029 
	C15.079992,91.073029 19.156696,91.073029 23.653368,91.073029 
	C23.653368,81.925674 23.653368,73.053032 23.653368,64.180397 
	C23.966463,64.123878 24.279558,64.067360 24.592653,64.010849 
	C27.535532,73.049232 30.478409,82.087616 33.495510,91.353958 
	C35.811619,91.353958 37.994709,91.104706 40.098309,91.407555 
	C44.074547,91.979988 45.959312,90.584549 47.043304,86.556358 
	C49.135281,78.782478 51.889519,71.186798 54.369190,63.517242 
	C54.620823,63.560524 54.872459,63.603802 55.124092,63.647083 
	C55.124092,72.699684 55.124092,81.752296 55.124092,91.037788 
	C59.689072,91.037788 63.899883,91.037788 68.360191,91.037788 
	C68.360191,88.578712 68.360191,86.434036 68.360245,83.341698 
M85.492401,91.428490 
	C87.588013,91.428490 89.683624,91.428490 91.746979,91.428490 
	C91.746979,81.194168 91.746979,71.495384 91.746979,61.964561 
	C86.944969,61.964561 82.514946,61.964561 78.124420,61.964561 
	C78.124420,71.928780 78.124420,81.626465 78.124420,91.428535 
	C80.495140,91.428535 82.490211,91.428535 85.492401,91.428490 
M78.177238,57.988853 
	C82.718384,57.988853 87.259529,57.988853 91.778091,57.988853 
	C91.778091,55.456524 91.778091,53.085915 91.778091,50.613640 
	C87.014153,50.613640 82.614120,50.613640 77.773354,50.613640 
	C77.773354,52.966362 77.773354,55.072926 78.177238,57.988853 
z"/>
<path fill="#F4F4F4" opacity="1.000000" stroke="none" 
	d="
M68.360214,83.815529 
	C68.360191,86.434036 68.360191,88.578712 68.360191,91.037788 
	C63.899883,91.037788 59.689072,91.037788 55.124092,91.037788 
	C55.124092,81.752296 55.124092,72.699684 55.124092,63.647083 
	C54.872459,63.603802 54.620823,63.560524 54.369190,63.517242 
	C51.889519,71.186798 49.135281,78.782478 47.043304,86.556358 
	C45.959312,90.584549 44.074547,91.979988 40.098309,91.407555 
	C37.994709,91.104706 35.811619,91.353958 33.495510,91.353958 
	C30.478409,82.087616 27.535532,73.049232 24.592653,64.010849 
	C24.279558,64.067360 23.966463,64.123878 23.653368,64.180397 
	C23.653368,73.053032 23.653368,81.925674 23.653368,91.073029 
	C19.156696,91.073029 15.079992,91.073029 10.694725,91.073029 
	C10.694725,77.638031 10.694725,64.280869 10.694725,50.445358 
	C17.040174,50.445358 23.161280,50.298382 29.262417,50.581581 
	C30.353706,50.632236 31.884453,52.276070 32.322369,53.502140 
	C34.716087,60.204094 36.831940,67.005287 39.450844,75.019501 
	C41.932629,67.352669 44.183483,60.900715 46.072033,54.344395 
	C46.959076,51.264919 48.435925,50.184967 51.665676,50.366199 
	C56.970257,50.663864 62.303715,50.446842 68.360245,50.446842 
	C68.360245,61.515991 68.360245,72.428841 68.360214,83.815529 
z"/>
<path fill="#FFFFFF" opacity="1.000000" stroke="none" 
	d="
M84.988838,91.428513 
	C82.490211,91.428535 80.495140,91.428535 78.124420,91.428535 
	C78.124420,81.626465 78.124420,71.928780 78.124420,61.964561 
	C82.514946,61.964561 86.944969,61.964561 91.746979,61.964561 
	C91.746979,71.495384 91.746979,81.194168 91.746979,91.428490 
	C89.683624,91.428490 87.588013,91.428490 84.988838,91.428513 
z"/>
<path fill="#98999C" opacity="1.000000" stroke="none" 
	d="
M77.975296,57.584175 
	C77.773354,55.072926 77.773354,52.966362 77.773354,50.613640 
	C82.614120,50.613640 87.014153,50.613640 91.778091,50.613640 
	C91.778091,53.085915 91.778091,55.456524 91.778091,57.988853 
	C87.259529,57.988853 82.718384,57.988853 77.975296,57.584175 
z"/>
</svg>