<?xml version="1.0" encoding="utf-8"?>
<!-- Generator: Adobe Illustrator 28.2.0, SVG Export Plug-In . SVG Version: 6.00 Build 0)  -->
<svg version="1.1" id="Layer_1" xmlns="http://www.w3.org/2000/svg" xmlns:xlink="http://www.w3.org/1999/xlink" x="0px" y="0px"
	 width="210px" height="100px" viewBox="0 0 211 101" style="enable-background:new 0 0 211 101;" xml:space="preserve">
<style type="text/css">
	.st0{fill-rule:evenodd;clip-rule:evenodd;fill:#FEFEFE;}
    .st1{opacity:0.986;fill-rule:evenodd;clip-rule:evenodd;fill:#FEFFFE;enable-background:new    ;}
    .st2{fill-rule:evenodd;clip-rule:evenodd;fill:#0D0203;}
    .st3{fill-rule:evenodd;clip-rule:evenodd;fill:#4A4548;}
    .st4{fill-rule:evenodd;clip-rule:evenodd;fill:#92918E;}
    .st5{fill-rule:evenodd;clip-rule:evenodd;fill:#3E393C;}
    .st6{opacity:0.967;fill-rule:evenodd;clip-rule:evenodd;fill:#FEFFFE;enable-background:new    ;}
    .st7{opacity:0.971;fill-rule:evenodd;clip-rule:evenodd;fill:#FEFFFE;enable-background:new    ;}
    .st8{opacity:0.979;fill-rule:evenodd;clip-rule:evenodd;fill:#FEFFFE;enable-background:new    ;}
    .st9{opacity:0.963;fill-rule:evenodd;clip-rule:evenodd;fill:#FEFFFE;enable-background:new    ;}
    .st10{opacity:0.913;fill-rule:evenodd;clip-rule:evenodd;fill:#FEFFFE;enable-background:new    ;}
    .st11{opacity:0.91;fill-rule:evenodd;clip-rule:evenodd;fill:#FEFFFE;enable-background:new    ;}
    .st12{opacity:0.939;fill-rule:evenodd;clip-rule:evenodd;fill:#FEFFFE;enable-background:new    ;}
    .st13{opacity:0.899;fill-rule:evenodd;clip-rule:evenodd;fill:#FEFFFE;enable-background:new    ;}
    .st14{opacity:0.968;fill-rule:evenodd;clip-rule:evenodd;fill:#FEFFFE;enable-background:new    ;}
    .st15{opacity:0.929;fill-rule:evenodd;clip-rule:evenodd;fill:#FEFFFE;enable-background:new    ;}
    .st16{opacity:0.909;fill-rule:evenodd;clip-rule:evenodd;fill:#FEFFFE;enable-background:new    ;}
    .st17{opacity:0.95;fill-rule:evenodd;clip-rule:evenodd;fill:#FEFFFE;enable-background:new    ;}
    .st18{opacity:0.911;fill-rule:evenodd;clip-rule:evenodd;fill:#FEFFFE;enable-background:new    ;}
    .st19{opacity:0.943;fill-rule:evenodd;clip-rule:evenodd;fill:#FEFFFE;enable-background:new    ;}
    .st20{opacity:0.897;fill-rule:evenodd;clip-rule:evenodd;fill:#FEFFFE;enable-background:new    ;}
    .st21{opacity:0.914;fill-rule:evenodd;clip-rule:evenodd;fill:#FEFFFE;enable-background:new    ;}
    .st22{opacity:0.922;fill-rule:evenodd;clip-rule:evenodd;fill:#FEFFFE;enable-background:new    ;}
</style>
<g>
	<g>
		<path class="st0" d="M0,0c27,0,54,0,81.1,0c0,27.3,0,54.5,0,81.8c-27,0-54,0-81.1,0C0,54.5,0,27.3,0,0z"/>
	</g>
	<g>
		<path class="st1" d="M88.7,41.3c1,0,2.1,0,3.1,0c0,4.7,0,9.4,0,14.1c6.4,0,12.8,0,19.2,0c0-4.7,0-9.4,0-14.1c1,0,2.1,0,3.1,0
			c0,10.9,0,21.9,0,32.8c-1,0-2.1,0-3.1,0c0-5.3,0-10.7,0-16c-6.4,0-12.8,0-19.2,0c0,5.3,0,10.7,0,16c-1,0-2.1,0-3.1,0
			C88.7,63.2,88.7,52.2,88.7,41.3z"/>
	</g>
	<g>
		<path class="st2" d="M37.3,41.6c5.5,0,11.1,0,16.6,0c0,10.9,0,21.7,0,32.6c-3.4,0-6.8,0-10.3,0c0-8.2,0-16.5-0.1-24.7
			c-0.1,0.1-0.1,0.1-0.2,0.2c-2.6,8.1-5.2,16.3-7.9,24.4c-3.2,0.1-6.3,0.1-9.5,0.1c-2.6-8.1-5.2-16.3-7.8-24.4c0-0.1,0-0.2-0.2-0.3
			c-0.1,8.2-0.1,16.5-0.1,24.7c-3.5,0-6.9,0-10.4,0c0-10.9,0-21.8,0-32.7c5.6,0,11.2,0,16.7,0.1c2.2,6.5,4.3,13.1,6.4,19.7
			C33.1,54.7,35.2,48.1,37.3,41.6z"/>
	</g>
	<g>
		<path class="st3" d="M37.3,41.6c5.6-0.1,11.1-0.1,16.7-0.1c0,10.9,0,21.8-0.1,32.7c0-10.9,0-21.7,0-32.6
			C48.4,41.6,42.9,41.6,37.3,41.6z"/>
	</g>
	<g>
		<path class="st4" d="M61.8,41.6c3.8,0,7.6,0,11.4,0c0,2,0,4.1,0,6.1c-3.8,0-7.6,0-11.4,0C61.8,45.7,61.8,43.7,61.8,41.6z"/>
	</g>
	<g>
		<path class="st5" d="M18.3,49.8c-0.1,8.1-0.1,16.3-0.2,24.4c0-8.2,0-16.5,0.1-24.7C18.3,49.5,18.4,49.7,18.3,49.8z"/>
	</g>
	<g>
		<path class="st5" d="M43.7,74.2c-0.1-8.2-0.1-16.3-0.2-24.5c0-0.1,0.1-0.2,0.2-0.2C43.7,57.7,43.7,66,43.7,74.2z"/>
	</g>
	<g>
		<path class="st6" d="M129.2,49.8c1.9-0.1,3.7,0.1,5.5,0.5c2.7,0.8,4.2,2.6,4.6,5.4c0,4.9,0.1,9.8,0.1,14.7c0,0.6,0.3,1.1,0.8,1.5
			c0.7,0,1.3-0.1,1.9-0.4c0.1,0.8,0.1,1.5,0.1,2.3c-1.4,0.6-2.9,0.6-4.3,0.1c-1-0.8-1.4-1.8-1.3-3.1c-3.6,3.6-7.8,4.6-12.7,3
			c-3.2-1.7-4.4-4.3-3.6-7.9c0.5-1.6,1.4-2.8,2.9-3.6c0.8-0.4,1.6-0.7,2.4-1c3.2-0.6,6.4-1.1,9.6-1.6c0.8-0.2,1.3-0.8,1.3-1.7
			c0.3-2.7-0.8-4.5-3.3-5.3c-1.8-0.4-3.6-0.3-5.4,0.1c-2.3,0.8-3.5,2.4-3.8,4.8c-1,0-1.9,0-2.9-0.1c0.3-3.5,2.1-5.9,5.4-7.1
			C127.4,50.1,128.3,49.9,129.2,49.8z M136.3,61.7c1.2,6.5-1.5,9.9-8.1,10.2c-1.8,0.1-3.3-0.5-4.5-1.9c-1.4-3.6-0.3-5.9,3.5-6.8
			c2.3-0.3,4.6-0.6,6.9-0.9C134.9,62.2,135.6,62,136.3,61.7z"/>
	</g>
	<g>
		<path class="st7" d="M175.5,49.8c7-0.2,10.9,3.2,11.6,10.2c0.1,0.9,0.1,1.8,0.2,2.7c-6.1,0-12.2,0-18.2,0c0,2.8,0.9,5.2,2.7,7.2
			c2.5,2,5.3,2.4,8.3,1.3c2-0.9,3.3-2.5,3.9-4.7c1-0.1,2.1-0.1,3.1,0.1c-1.5,5.2-4.9,7.8-10.2,7.7c-5.2,0.1-8.5-2.4-10.1-7.3
			c-0.8-3.2-0.8-6.3,0-9.5C168,53.2,171,50.6,175.5,49.8z M176,52.3c4.2-0.2,6.9,1.8,7.9,5.9c0.1,0.8,0.2,1.5,0.3,2.3
			c-5.1,0-10.1,0-15.2-0.1c0.3-2.5,1.3-4.7,3.1-6.4C173.3,53.1,174.6,52.5,176,52.3z"/>
	</g>
	<g>
		<path class="st8" d="M211,56c0,6,0,11.9,0,17.9c-0.9,0-1.8,0-2.7,0c0-5.2,0-10.4-0.1-15.6c0-4-2-6-5.9-6c-4.2,0.3-6.6,2.6-7.1,6.9
			c-0.1,4.9-0.1,9.8-0.1,14.7c-0.9,0-1.9,0-2.8,0c0-7.8,0-15.6,0-23.4c0.9,0,1.9,0,2.8,0c0,1,0,2,0.1,3.1c3.8-4.2,8.1-4.9,13-2.1
			C209.8,52.6,210.7,54.1,211,56z"/>
	</g>
	<g>
		<path class="st9" d="M143,50.4c1,0,2.1,0,3.1,0.1c2.5,6.5,4.9,13.1,7.4,19.6c2.5-6.5,5-13.1,7.5-19.6c1-0.1,2.1-0.1,3.1-0.1
			c-3.1,7.8-6.1,15.6-9.1,23.4c-1.1,0-2.1,0-3.2-0.1C148.9,66,145.9,58.2,143,50.4z"/>
	</g>
	<g>
		<path class="st2" d="M61.8,50.6c3.8,0,7.6,0,11.4,0c0,7.9,0,15.8,0,23.6c-3.8,0-7.6,0-11.4,0C61.8,66.3,61.8,58.4,61.8,50.6z"/>
	</g>
	<g>
		<path class="st10" d="M6,101c-0.7,0-1.4,0-2.1,0c-2.2-0.3-3.4-1.6-3.5-3.9c0.4,0,0.8,0,1.2,0c0,1.8,0.9,2.7,2.7,2.9
			c1.3,0.2,2.4-0.1,3.3-1c0.6-1,0.4-1.9-0.6-2.6c-1.5-0.5-3-0.9-4.5-1.3c-1.4-0.6-1.9-1.7-1.6-3.2c0.4-1.4,1.3-2.2,2.8-2.3
			c1.5-0.3,2.9,0.1,4.1,1c0.7,0.7,1,1.5,1,2.5c-0.4,0-0.8,0-1.2,0c-0.2-1.4-1-2.2-2.4-2.5c-1.2-0.2-2.2,0.1-3,1
			c-0.5,0.9-0.3,1.7,0.5,2.3c1.5,0.5,3,0.9,4.5,1.3c1.5,0.6,2.1,1.8,1.8,3.4c-0.2,0.7-0.6,1.3-1.1,1.7C7.4,100.6,6.7,100.9,6,101z"
			/>
	</g>
	<g>
		<path class="st11" d="M78.8,101c-0.6,0-1.2,0-1.8,0c-2.4-0.6-3.8-2.2-4.2-4.7c-0.4-2.3,0.3-4.3,2-5.9c1.8-1.1,3.8-1.2,5.7-0.3
			c1.1,0.7,1.8,1.7,2.1,3c-0.4,0.1-0.8,0.1-1.2,0.1c-0.4-1.5-1.3-2.4-2.9-2.7c-2.1-0.1-3.5,0.7-4.3,2.7c-0.6,1.8-0.4,3.6,0.5,5.2
			c1.1,1.4,2.6,1.9,4.4,1.5c1.7-0.6,2.6-1.9,2.5-3.8c-1.2,0-2.4,0-3.7,0c0-0.3,0-0.7,0-1c1.6,0,3.2,0,4.7,0c0,1.9,0,3.8,0,5.7
			c-0.3,0-0.6,0-0.9,0c0-0.6-0.1-1.2-0.2-1.7C81,100.1,80,100.8,78.8,101z"/>
	</g>
	<g>
		<path class="st12" d="M13.8,89.7c0.4,0,0.8,0,1.2,0c0,1.6,0,3.2,0,4.8c2.1,0,4.2,0,6.4,0c0-1.6,0-3.2,0-4.8c0.4,0,0.7,0,1.1,0
			c0,3.7,0,7.4,0,11.1c-0.4,0-0.7,0-1.1,0c0-1.8,0-3.6,0-5.3c-2.1,0-4.2,0-6.4,0c0,1.8,0,3.6,0,5.3c-0.4,0-0.8,0-1.2,0
			C13.8,97.1,13.8,93.4,13.8,89.7z"/>
	</g>
	<g>
		<path class="st13" d="M30.8,89.7c0.4,0,0.9,0,1.3,0.1c1.4,3.6,2.9,7.3,4.3,10.9c-0.4,0.1-0.9,0.1-1.3,0.1
			c-0.4-1.1-0.8-2.2-1.2-3.4c-1.7,0-3.3,0-5,0.1c-0.4,1-0.9,2.1-1.2,3.2c-0.4,0.1-0.8,0.1-1.2,0C27.9,97,29.4,93.3,30.8,89.7z
			 M31.3,91.1c0.1,0,0.2,0.1,0.2,0.2c0.6,1.7,1.3,3.4,1.8,5.1c-1.3,0-2.7,0-4-0.1C30,94.5,30.7,92.8,31.3,91.1z"/>
	</g>
	<g>
		<path class="st10" d="M40.3,89.7c2.1,0,4.1,0,6.2,0.2c1.1,0.3,1.7,1,2,2.1c0.2,1.1,0,2.1-0.5,3.1c-0.6,0.6-1.3,1-2.1,1
			c-1.4,0.1-2.9,0.1-4.3,0.1c0,1.6,0,3.1,0,4.7c-0.4,0-0.8,0-1.2,0C40.3,97.1,40.3,93.4,40.3,89.7z M41.4,90.6c1.3,0,2.7,0,4,0.1
			c1.3,0.2,1.9,0.9,1.9,2.2c-0.1,1-0.6,1.7-1.5,2.1c-1.5,0.1-2.9,0.2-4.4,0.2C41.4,93.6,41.4,92.1,41.4,90.6z"/>
	</g>
	<g>
		<path class="st14" d="M53.1,89.7c0.4,0,0.7,0,1.1,0c0,3.7,0,7.4,0,11.1c-0.4,0-0.7,0-1.1,0C53.1,97.1,53.1,93.4,53.1,89.7z"/>
	</g>
	<g>
		<path class="st15" d="M59.5,89.7c0.4,0,0.9,0,1.3,0.1c2.1,3,4.1,5.9,6.1,8.9c0.1-3,0.1-6,0.1-9c0.4,0,0.8,0,1.2,0
			c0,3.7,0,7.4,0,11.1c-0.5,0-0.9,0-1.3-0.1c-2.1-3-4.1-6-6.2-9c-0.1,3.1-0.1,6.1-0.1,9.2c-0.4,0-0.7,0-1.1,0
			C59.5,97.1,59.5,93.4,59.5,89.7z"/>
	</g>
	<g>
		<path class="st16" d="M93.8,89.7c2.9,0,5.8,0,8.7,0c0,0.3,0,0.7,0,1c-1.3,0-2.5,0-3.8,0c0,3.4,0,6.8,0,10.1c-0.4,0-0.8,0-1.2,0
			c0-3.4,0-6.8,0-10.1c-1.3,0-2.5,0-3.8,0C93.8,90.3,93.8,90,93.8,89.7z"/>
	</g>
	<g>
		<path class="st12" d="M106.5,89.7c0.4,0,0.7,0,1.1,0c0,1.6,0,3.2,0,4.8c2.1,0,4.2,0,6.4,0c0-1.6,0-3.2,0-4.8c0.4,0,0.8,0,1.2,0
			c0,3.7,0,7.4,0,11.1c-0.4,0-0.8,0-1.2,0c0-1.8,0-3.6,0-5.3c-2.1,0-4.2,0-6.4,0c0,1.8,0,3.6,0,5.3c-0.4,0-0.7,0-1.1,0
			C106.5,97.1,106.5,93.4,106.5,89.7z"/>
	</g>
	<g>
		<path class="st17" d="M120.3,89.7c2.5,0,5,0,7.6,0c0,0.3,0,0.7,0,1c-2.2,0-4.3,0-6.5,0c0,1.3,0,2.6,0,3.9c2,0,4,0,6,0
			c0,0.3,0,0.7,0,1c-2,0-4,0-6,0c0,1.4,0,2.8,0,4.2c2.2,0,4.4,0,6.6,0c0,0.3,0,0.7,0,1c-2.6,0-5.1,0-7.7,0
			C120.3,97.1,120.3,93.4,120.3,89.7z"/>
	</g>
	<g>
		<path class="st18" d="M139.7,89.7c2.4,0,4.7,0,7.1,0c0,0.3,0,0.7,0,1c-2,0-4,0-5.9,0c0,1.3,0,2.6,0,3.9c1.8,0,3.5,0,5.3,0
			c0,0.3,0,0.7,0,1c-1.8,0-3.5,0-5.3,0c0,1.7,0,3.5,0,5.2c-0.4,0-0.8,0-1.2,0C139.7,97.1,139.7,93.4,139.7,89.7z"/>
	</g>
	<g>
		<path class="st19" d="M156.2,101c-0.6,0-1.3,0-1.9,0c-1.6-0.3-2.7-1.2-3.2-2.7c-0.2-2.9-0.2-5.7-0.2-8.6c0.4,0,0.7,0,1.1,0
			c0,2.4,0,4.7,0.1,7.1c0,2.1,1,3.2,3.1,3.3c1.6,0,2.6-0.7,3-2.2c0.2-2.7,0.2-5.4,0.2-8.2c0.4,0,0.7,0,1.1,0c0,2.9,0,5.7-0.2,8.6
			C158.7,99.8,157.7,100.7,156.2,101z"/>
	</g>
	<g>
		<path class="st16" d="M163.3,89.7c2.9,0,5.8,0,8.7,0c0,0.3,0,0.7,0,1c-1.3,0-2.5,0-3.8,0c0,3.4,0,6.8,0,10.1c-0.4,0-0.8,0-1.2,0
			c0-3.4,0-6.8,0-10.1c-1.3,0-2.5,0-3.8,0C163.3,90.3,163.3,90,163.3,89.7z"/>
	</g>
	<g>
		<path class="st20" d="M181.2,101c-0.6,0-1.3,0-1.9,0c-1.6-0.3-2.7-1.2-3.2-2.8c-0.2-2.8-0.2-5.7-0.2-8.5c0.4,0,0.8,0,1.2,0
			c0,2.8,0,5.6,0.2,8.4c0.5,1.4,1.5,2,2.9,2c1.5,0.1,2.6-0.6,3-2.1c0.2-2.8,0.2-5.5,0.2-8.3c0.4,0,0.8,0,1.2,0c0,2.5,0,5.1-0.1,7.6
			C184.3,99.4,183.2,100.6,181.2,101z"/>
	</g>
	<g>
		<path class="st21" d="M189.5,89.7c2,0,4,0,5.9,0.1c2,0.4,2.8,1.7,2.4,3.8c-0.3,1-0.9,1.6-1.8,1.9c0.7,0.2,1.2,0.6,1.5,1.3
			c0.2,0.9,0.3,1.9,0.3,2.8c0,0.4,0.2,0.8,0.4,1.2c-0.4,0.1-0.9,0.1-1.3,0c-0.2-1-0.3-2-0.4-3.1c-0.1-0.9-0.6-1.5-1.5-1.7
			c-1.5-0.1-2.9-0.1-4.4-0.1c0,1.6,0,3.3,0,4.9c-0.4,0-0.8,0-1.2,0C189.5,97.1,189.5,93.4,189.5,89.7z M190.7,90.6
			c1.4,0,2.9,0,4.3,0.1c1.5,0.4,2.1,1.3,1.7,2.9c-0.2,0.6-0.7,0.9-1.2,1.1c-1.6,0.2-3.2,0.2-4.7,0.2
			C190.7,93.5,190.7,92.1,190.7,90.6z"/>
	</g>
	<g>
		<path class="st22" d="M202.8,89.7c2.6,0,5.1,0,7.7,0c0,0.3,0,0.7,0,1c-2.2,0-4.3,0-6.5,0c0,1.3,0,2.6,0,3.9c2,0,4,0,6,0
			c0,0.3,0,0.7,0,1c-2,0-4,0-6,0c0,1.4,0,2.8,0,4.2c2.2,0,4.4,0,6.6,0c0,0.3,0,0.7,0,1c-2.6,0-5.2,0-7.8,0
			C202.8,97.1,202.8,93.4,202.8,89.7z"/>
	</g>
</g>
</svg>
